<svg xmlns="http://www.w3.org/2000/svg" aria-hidden="true" style="position:absolute;width:0;height:0;overflow:hidden">
  <defs>
    <symbol id="icon-check" viewBox="0 0 32 32">
      <path d="M16 26.667c5.891 0 10.667-4.776 10.667-10.667S21.891 5.333 16 5.333 5.333 10.109 5.333 16 10.109 26.667 16 26.667z"/>
      <path fill="none" stroke="#000" stroke-width="1.28" d="m11.333 14.667 3.859 3.859a.202.202 0 0 0 .282 0L25.999 8.001" style="stroke:var(--color1, #000)"/>
    </symbol>
    <symbol id="icon-close" viewBox="0 0 32 32">
      <path fill="#573c2b" d="M16 2C8.2 2 2 8.2 2 16s6.2 14 14 14 14-6.2 14-14S23.8 2 16 2zm0 26C9.4 28 4 22.6 4 16S9.4 4 16 4s12 5.4 12 12-5.4 12-12 12z" style="fill:var(--color2, #573c2b)"/>
      <path fill="#573c2b" d="M21.4 23 16 17.6 10.6 23 9 21.4l5.4-5.4L9 10.6 10.6 9l5.4 5.4L21.4 9l1.6 1.6-5.4 5.4 5.4 5.4-1.6 1.6z" style="fill:var(--color2, #573c2b)"/>
    </symbol>
    <symbol id="icon-download" viewBox="0 0 32 32">
      <path d="m16 20.769-4.719-4.717.944-.96 3.108 3.108V6.667h1.333V18.2l3.107-3.107.945.959-4.719 4.717zm-7.179 4.564c-.614 0-1.127-.205-1.537-.616s-.616-.924-.617-1.539v-3.231H8v3.231c0 .205.085.394.256.565s.359.257.564.256h14.36c.204 0 .392-.085.564-.256s.257-.359.256-.565v-3.231h1.333v3.231c0 .614-.205 1.127-.616 1.537s-.924.616-1.539.617H8.821z"/>
    </symbol>
    <symbol id="icon-light-bulb" viewBox="0 0 32 32">
      <path fill="#9bc9ff" d="M28.709 21.465c1.623 0 2.938 1.261 2.938 2.817s-1.315 2.817-2.938 2.817-2.938-1.261-2.938-2.817c0-1.556 1.315-2.817 2.938-2.817zM3.733 25.352c.999 0 1.822.789 1.822 1.746s-.823 1.747-1.822 1.747c-.999 0-1.822-.789-1.822-1.747s.764-1.746 1.822-1.746z" style="fill:var(--color3, #9bc9ff)"/>
      <path fill="#fff" d="M14.897 7.493a6.821 6.821 0 0 1-2.938 6.254l-4.29 2.986a667.123 667.123 0 0 1-4.29-2.986C1.322 12.282.147 9.916.441 7.493l.353-3.887C4.908 3.55 7.67.338 7.67.338s.823.958 2.233 1.859c1.175.732 2.762 1.408 4.643 1.465l.353 3.831z" style="fill:var(--color4, #fff)"/>
      <path fill="#9bc9ff" d="M11.433 7.718c.118.394.235.789.235 1.239 0 2.197-1.881 4-4.173 4s-4.173-1.803-4.173-4 1.881-4 4.173-4a4.17 4.17 0 0 1 2.938 1.183L7.847 8.619l-.646-.62c-.353-.338-.999-.338-1.352 0-.176.169-.294.394-.294.62s.118.451.294.62l1.998 1.915 3.585-3.437z" style="fill:var(--color3, #9bc9ff)"/>
      <path fill="#fff" d="M12.901 5.014c.353.338.353.958 0 1.296l-5.054 4.845L5.849 9.24c-.176-.169-.294-.394-.294-.62s.118-.451.294-.62c.353-.338.999-.338 1.352 0l.646.62 3.702-3.549a.961.961 0 0 1 .646-.282c.294 0 .529.056.705.225z" style="fill:var(--color4, #fff)"/>
      <path fill="#9bc9ff" d="M18.012 29.577v.845c0 .732-.588 1.296-1.352 1.296h-1.704c-.764 0-1.352-.563-1.352-1.296v-.845h4.408z" style="fill:var(--color3, #9bc9ff)"/>
      <path fill="#fff" d="M11.784 25.352h8.11v2.141h-8.11v-2.141z" style="fill:var(--color4, #fff)"/>
      <path fill="#fff" d="M19.892 27.437v.845c0 .732-.588 1.296-1.352 1.296h-5.348c-.764 0-1.352-.563-1.352-1.296v-.845h8.051zM11.784 23.268h8.11v2.085h-8.11v-2.085z" style="fill:var(--color4, #fff)"/>
      <path fill="#9bc9ff" d="M27.944 12.282c0 5.07-3.35 9.352-8.11 10.986h-8.051c-4.114-1.409-7.228-4.901-7.934-9.127l3.82 2.648 4.29-2.986c2.057-1.465 3.232-3.831 2.938-6.254l-.353-3.944c-1.881-.056-3.467-.732-4.643-1.465 1.763-.958 3.761-1.465 5.936-1.465 6.7 0 12.106 5.183 12.106 11.606z" style="fill:var(--color3, #9bc9ff)"/>
      <path fill="#1e81ce" d="M31.058 9.521c.292 0 .529.227.529.507s-.237.507-.529.507c-.292 0-.529-.227-.529-.507s.237-.507.529-.507zM25.534.733c.292 0 .529.227.529.507s-.237.507-.529.507c-.292 0-.529-.227-.529-.507s.237-.507.529-.507zM22.242 28.169c.292 0 .529.227.529.507s-.237.507-.529.507c-.292 0-.529-.227-.529-.507s.237-.507.529-.507zM8.315 28.507c.292 0 .529.227.529.507s-.237.507-.529.507c-.292 0-.529-.227-.529-.507s.237-.507.529-.507zM3.143 1.071c.292 0 .529.227.529.507s-.237.507-.529.507c-.292 0-.529-.227-.529-.507s.237-.507.529-.507zM2.029 19.718c.292 0 .529.227.529.507s-.237.507-.529.507c-.292 0-.529-.227-.529-.507s.237-.507.529-.507zM19.894 27.775c-.176 0-.353-.169-.353-.338v-2.141c0-.169.176-.338.353-.338s.353.169.353.338v2.141c0 .225-.176.338-.353.338zM11.782 27.775c-.176 0-.353-.169-.353-.338v-2.141c0-.169.176-.338.353-.338s.353.169.353.338v2.141c0 .225-.118.338-.353.338z" style="fill:var(--color5, #1e81ce)"/>
      <path fill="#1e81ce" d="M18.541 29.915h-.47c-.176 0-.353-.169-.353-.338s.176-.338.353-.338h.47c.529 0 .999-.394.999-.958v-.451h-7.405v.451c0 .507.411.958.999.958h.47c.176 0 .353.169.353.338s-.176.338-.353.338h-.47c-.94 0-1.704-.732-1.704-1.634v-.845c0-.169.176-.338.353-.338h8.11c.176 0 .353.169.353.338v.845c0 .901-.764 1.634-1.704 1.634z" style="fill:var(--color5, #1e81ce)"/>
      <path fill="#1e81ce" d="M14.017 29.915v.451c0 .507.411.958.999.958h1.704c.529 0 .999-.394.999-.958v-.451h-3.702zM16.661 32h-1.704c-.94 0-1.704-.732-1.704-1.634v-.845c0-.169.176-.338.353-.338h4.408c.176 0 .353.169.353.338v.845c.059.901-.705 1.634-1.704 1.634zM22.422 23.606H9.199c-.176 0-.353-.169-.353-.338s.176-.338.353-.338h13.223c.176 0 .353.169.353.338s-.118.338-.353.338zM3.733 25.69c-.823 0-1.469.62-1.469 1.408s.646 1.409 1.469 1.409 1.469-.62 1.469-1.409-.705-1.408-1.469-1.408zm0 3.493c-1.234 0-2.233-.958-2.233-2.141s.999-2.141 2.233-2.141 2.233.958 2.233 2.141-1.058 2.141-2.233 2.141zM28.708 21.803c-1.411 0-2.586 1.127-2.586 2.479s1.175 2.479 2.586 2.479c1.41 0 2.586-1.127 2.586-2.479a2.596 2.596 0 0 0-2.586-2.479zm0 5.634c-1.822 0-3.291-1.408-3.291-3.155s1.469-3.155 3.291-3.155c1.822 0 3.291 1.409 3.291 3.155s-1.469 3.155-3.291 3.155z" style="fill:var(--color5, #1e81ce)"/>
      <path fill="#1e81ce" d="M19.892 25.69h-8.11c-.176 0-.353-.169-.353-.338v-1.803c-4.231-1.521-7.228-5.071-7.934-9.352-.059-.169.118-.394.294-.394.176-.056.411.113.411.282.646 4.113 3.644 7.493 7.699 8.845.118.056.235.169.235.338v1.747h7.346v-1.747c0-.169.118-.282.235-.338 4.701-1.577 7.816-5.859 7.816-10.648 0-6.197-5.289-11.268-11.754-11.268-1.998 0-3.996.507-5.759 1.465-.176.113-.411.056-.529-.113s-.059-.394.118-.507A12.9 12.9 0 0 1 15.719.338c6.876 0 12.518 5.352 12.518 12 0 4.958-3.232 9.465-8.11 11.211v1.803c.118.169-.059.338-.235.338z" style="fill:var(--color5, #1e81ce)"/>
      <path fill="#1e81ce" d="M24.183 12.901c-.176 0-.353-.169-.353-.338 0-3.437-2.409-6.479-5.877-7.324-.176-.056-.294-.225-.235-.451.059-.169.235-.282.47-.225 3.761.958 6.406 4.282 6.406 8.056-.059.113-.235.282-.411.282zM7.435 13.352c-2.527 0-4.584-1.972-4.584-4.394s2.057-4.394 4.584-4.394c1.234 0 2.351.451 3.232 1.296.118.113.118.338 0 .507s-.353.113-.529 0a3.962 3.962 0 0 0-2.703-1.07c-2.116 0-3.82 1.634-3.82 3.662s1.704 3.662 3.82 3.662c2.116 0 3.82-1.634 3.82-3.662 0-.394-.059-.789-.176-1.127-.059-.169.059-.394.235-.451s.411.056.47.225c.176.451.235.901.235 1.352 0 2.423-2.057 4.394-4.584 4.394z" style="fill:var(--color5, #1e81ce)"/>
      <path fill="#1e81ce" d="M6.496 8c-.176 0-.294.056-.411.169s-.176.225-.176.394.059.282.176.394l1.763 1.69 4.819-4.62c.118-.113.176-.225.176-.394s-.059-.282-.176-.394c-.118-.113-.235-.169-.411-.169s-.294.056-.411.169L8.143 8.788c-.118.113-.353.113-.529 0l-.646-.62c-.176-.113-.294-.169-.47-.169zm1.352 3.549c-.118 0-.176-.056-.235-.113L5.615 9.521c-.235-.225-.411-.563-.411-.901s.118-.676.411-.901c.235-.225.588-.394.94-.394s.705.113.94.394l.411.394 3.467-3.324c.235-.225.588-.394.94-.394s.705.113.94.394c.235.225.411.563.411.901s-.118.676-.411.901l-5.054 4.845c-.176.056-.235.113-.353.113z" style="fill:var(--color5, #1e81ce)"/>
      <path fill="#1e81ce" d="M1.146 3.944.793 7.55c-.235 2.31.882 4.62 2.821 5.972l4.055 2.817 4.055-2.817c1.939-1.352 3.056-3.662 2.821-5.972l-.353-3.606c-1.528-.113-3.056-.563-4.466-1.465C8.727 1.859 8.08 1.24 7.728.845c-.823.789-3.232 2.93-6.582 3.099zm6.523 13.183c-.059 0-.176 0-.235-.056l-4.29-2.986C.97 12.564-.206 10.029.029 7.493l.353-3.887c0-.169.176-.338.353-.338C4.672 3.212 7.317.113 7.317.113 7.376.057 7.493 0 7.611 0s.235.056.294.113c0 0 .823.901 2.116 1.746a8.84 8.84 0 0 0 4.466 1.408c.176 0 .353.169.353.338l.353 3.887c.235 2.535-.94 5.07-3.115 6.592l-4.29 2.986c.059 0-.059.056-.118.056z" style="fill:var(--color5, #1e81ce)"/>
    </symbol>
    <symbol id="icon-logo" viewBox="0 0 159 32">
      <path fill="#7a2e00" d="M5.768 10.161a3.019 3.019 0 0 0 1.033-.736c.469-.529.823-1.318 1.062-2.367l.187.029v3.32h-.187l-.488-.794a5.48 5.48 0 0 1-1.406.751 4.18 4.18 0 0 1-1.449.274 4.078 4.078 0 0 1-2.296-.693C1.535 9.483.99 8.858.588 8.069.196 7.27 0 6.39 0 5.428 0 4.475.196 3.6.588 2.801.99 2.002 1.535 1.372 2.224.91S3.668.217 4.491.217c.43 0 .87.072 1.32.217.459.135.966.351 1.521.65l.344-.693h.187l.143 3.248-.201.058c-.134-.741-.344-1.352-.631-1.833A2.955 2.955 0 0 0 6.055.781a3.032 3.032 0 0 0-1.521-.39C3.52.391 2.74.829 2.195 1.704s-.818 2.117-.818 3.724c0 1.597.273 2.834.818 3.71.545.866 1.32 1.299 2.324 1.299.43 0 .847-.091 1.248-.274zM11.016 0v10.176l.875.115v.115H9.208v-.115l.875-.115V.982L9.236.664V.563L10.9 0h.115zM14.01 10.508c-.363 0-.665-.125-.904-.375-.23-.26-.344-.592-.344-.996 0-.481.215-.866.646-1.155.44-.289 1.181-.539 2.224-.751V5.918c0-.558-.062-.943-.187-1.155-.124-.221-.34-.332-.646-.332-.297 0-.536.082-.717.245-.182.154-.273.366-.273.635l.014.39c0 .241-.048.433-.143.577a.416.416 0 0 1-.373.202.488.488 0 0 1-.359-.144.54.54 0 0 1-.129-.375c0-.231.11-.481.33-.751.23-.279.521-.51.875-.693a2.697 2.697 0 0 1 1.334-.361c.268 0 .493.053.674.159.191.106.33.255.416.447.048.125.077.279.086.462.019.183.029.534.029 1.054v2.757c0 .346.034.587.101.722.067.125.187.188.359.188.258 0 .45-.091.574-.274l.057.029a1.42 1.42 0 0 1-.459.563 1.107 1.107 0 0 1-.617.188.896.896 0 0 1-.617-.216.898.898 0 0 1-.273-.606l-.043-.014c-.22.279-.473.5-.76.664a1.833 1.833 0 0 1-.875.231zm.617-.549c.201 0 .387-.043.56-.13a1.2 1.2 0 0 0 .445-.404V7.39c-.497.125-.885.25-1.162.375-.268.125-.459.274-.574.447s-.172.39-.172.65c0 .337.081.606.244.808a.822.822 0 0 0 .66.289zM21.38 4.143c.191 0 .354.067.488.202a.607.607 0 0 1 .201.462c0 .154-.053.284-.158.39s-.234.159-.387.159a.476.476 0 0 1-.244-.058 1.31 1.31 0 0 1-.187-.202.956.956 0 0 0-.187-.173.292.292 0 0 0-.187-.058c-.153 0-.311.091-.473.274a1.683 1.683 0 0 0-.33.635v4.402l1.148.115v.115h-2.956v-.115l.875-.115V5.124l-.847-.318v-.101l1.621-.563h.115v1.27c.536-.847 1.038-1.27 1.507-1.27zM28.316 9.685v.072l-1.564.722h-.086v-.982l-.043-.014c-.564.712-1.172 1.068-1.822 1.068-.297 0-.56-.063-.789-.188s-.397-.298-.502-.52a1.33 1.33 0 0 1-.129-.505 15.315 15.315 0 0 1-.029-1.14V4.517l-.861-.115v-.115h1.793v3.912c0 .385.01.669.029.852.019.173.057.322.115.447a.827.827 0 0 0 .33.375c.163.087.344.13.545.13.239 0 .469-.058.689-.173.22-.125.421-.303.603-.534V4.518l-.861-.115v-.115h1.793v5.225l.789.173zM35.036 10.291v.115h-2.669v-.115l.875-.115V6.495c0-.375-.009-.654-.029-.837s-.057-.337-.115-.462a.777.777 0 0 0-.387-.375 1.217 1.217 0 0 0-.603-.144c-.488 0-.923.207-1.306.621v4.879l.875.115v.115h-2.683v-.115l.875-.115v-4.98l-.847-.318v-.101l1.621-.563h.115v.909c.612-.654 1.253-.981 1.923-.981.296 0 .564.067.803.202.249.125.426.293.531.505.067.125.11.298.129.52.019.212.029.587.029 1.126v3.681l.861.115zM38.679 4.143c.555 0 1.047.135 1.478.404s.765.65 1.004 1.14c.239.481.359 1.034.359 1.66s-.12 1.184-.359 1.674c-.239.481-.574.856-1.004 1.126s-.923.404-1.478.404-1.047-.135-1.478-.404a2.72 2.72 0 0 1-1.004-1.126c-.239-.491-.359-1.049-.359-1.674s.12-1.179.359-1.66c.239-.491.574-.871 1.004-1.14s.923-.404 1.478-.404zM36.9 7.347c0 .962.158 1.713.473 2.252s.751.808 1.306.808.99-.269 1.306-.808c.316-.539.474-1.289.474-2.252s-.158-1.713-.474-2.252c-.316-.539-.751-.808-1.306-.808s-.99.269-1.306.808c-.316.539-.473 1.289-.473 2.252zM5.768 28.204a3.019 3.019 0 0 0 1.033-.736c.469-.529.823-1.318 1.062-2.367l.187.029v3.32h-.187l-.488-.794a5.48 5.48 0 0 1-1.406.751 4.18 4.18 0 0 1-1.449.274 4.078 4.078 0 0 1-2.296-.693C1.535 27.526.99 26.901.588 26.112.196 25.313 0 24.433 0 23.471c0-.953.196-1.828.588-2.627.402-.799.947-1.429 1.636-1.891s1.444-.693 2.267-.693c.43 0 .87.072 1.32.217.459.135.966.351 1.521.649l.344-.693h.187l.143 3.248-.201.058c-.134-.741-.344-1.352-.631-1.833a2.955 2.955 0 0 0-1.119-1.083 3.032 3.032 0 0 0-1.521-.39c-1.014 0-1.794.438-2.339 1.313s-.818 2.117-.818 3.724c0 1.597.273 2.834.818 3.709.545.866 1.32 1.299 2.324 1.299.43 0 .847-.091 1.248-.274zM11.016 18.042v10.176l.875.115v.115H9.208v-.115l.875-.115v-9.194l-.847-.317v-.101l1.664-.563h.115zM14.01 28.55c-.363 0-.665-.125-.904-.375-.23-.26-.344-.592-.344-.996 0-.481.215-.866.646-1.155.44-.289 1.181-.539 2.224-.751V23.96c0-.558-.062-.943-.187-1.155-.124-.221-.34-.332-.646-.332-.297 0-.536.082-.717.245-.182.154-.273.366-.273.635l.014.39c0 .241-.048.433-.143.577a.416.416 0 0 1-.373.202.488.488 0 0 1-.359-.144.54.54 0 0 1-.129-.375c0-.231.11-.481.33-.751.23-.279.521-.51.875-.693a2.697 2.697 0 0 1 1.334-.361c.268 0 .493.053.674.159.191.106.33.255.416.447.048.125.077.279.086.462.019.183.029.534.029 1.054v2.757c0 .346.034.587.101.722.067.125.187.188.359.188.258 0 .45-.091.574-.274l.057.029a1.42 1.42 0 0 1-.459.563 1.107 1.107 0 0 1-.617.188.892.892 0 0 1-.617-.217.898.898 0 0 1-.273-.606l-.043-.015c-.22.279-.473.5-.76.664a1.833 1.833 0 0 1-.875.231zm.617-.548c.201 0 .387-.043.56-.13a1.2 1.2 0 0 0 .445-.404v-2.035c-.497.125-.885.25-1.162.375-.268.125-.459.274-.574.447s-.172.39-.172.649c0 .337.081.606.244.808.163.193.383.289.66.289zM21.38 22.185c.191 0 .354.067.488.202a.607.607 0 0 1 .201.462c0 .154-.053.284-.158.39s-.234.159-.387.159a.476.476 0 0 1-.244-.058 1.31 1.31 0 0 1-.187-.202.956.956 0 0 0-.187-.173.286.286 0 0 0-.187-.058c-.153 0-.311.091-.473.274a1.683 1.683 0 0 0-.33.635v4.402l1.148.115v.115h-2.956v-.115l.875-.115v-5.052l-.847-.317v-.101l1.621-.563h.115v1.27c.536-.847 1.038-1.27 1.507-1.27zM23.395 19.616c-.124.125-.187.289-.187.491s.062.371.187.505c.134.125.301.188.502.188s.363-.063.488-.188c.134-.135.201-.303.201-.505s-.067-.366-.201-.491c-.124-.135-.287-.202-.488-.202s-.368.067-.502.202zm1.047 2.569v6.033l.875.115v.115h-2.683v-.115l.875-.115v-5.052l-.847-.317v-.101l1.664-.563h.115zM25.899 22.474l1.578-1.53.057.014v1.371h1.636l-.086.231h-1.55v4.417c0 .337.053.587.158.751.115.231.33.346.646.346.153 0 .301-.039.445-.115s.301-.202.473-.375l.057.043a1.697 1.697 0 0 1-.617.707c-.258.173-.536.26-.832.26a1.36 1.36 0 0 1-.818-.26c-.163-.115-.277-.265-.344-.447s-.1-.423-.1-.722v-4.619h-.674l-.029-.072zM31.417 23.065l1.521 4.33h.057l1.306-3.969c.057-.193.086-.342.086-.447a.343.343 0 0 0-.215-.332c-.144-.077-.407-.144-.789-.202v-.115h2.568v.115c-.459.067-.784.168-.976.303s-.34.366-.445.693l-2.396 7.087c-.163.51-.344.861-.545 1.054-.249.279-.536.419-.861.419a.97.97 0 0 1-.674-.245.74.74 0 0 1-.273-.592c0-.192.053-.346.158-.462a.62.62 0 0 1 .459-.173c.182 0 .311.048.387.144s.139.231.187.404c.038.135.077.231.115.289a.234.234 0 0 0 .201.101c.124 0 .239-.082.344-.245.105-.154.22-.419.344-.794l.56-1.718-2.21-5.774c-.077-.183-.177-.303-.301-.361-.115-.067-.335-.111-.66-.13v-.115h2.769v.115c-.344.019-.569.048-.674.087-.096.029-.143.082-.143.159 0 .058.033.183.1.375zM45.464 28.204a3.019 3.019 0 0 0 1.033-.736c.469-.529.823-1.318 1.062-2.367l.186.029v3.32h-.186l-.488-.794a5.497 5.497 0 0 1-1.406.751 4.184 4.184 0 0 1-1.449.274 4.078 4.078 0 0 1-2.296-.693c-.689-.462-1.234-1.087-1.636-1.876-.392-.799-.588-1.679-.588-2.641 0-.953.196-1.828.588-2.627.402-.799.947-1.429 1.636-1.891s1.444-.693 2.267-.693c.43 0 .87.072 1.32.217.459.135.966.351 1.521.649l.344-.693h.187l.143 3.248-.201.058c-.134-.741-.344-1.352-.631-1.833a2.955 2.955 0 0 0-1.119-1.083 3.032 3.032 0 0 0-1.521-.39c-1.014 0-1.794.438-2.339 1.313s-.818 2.117-.818 3.724c0 1.597.273 2.834.818 3.709.545.866 1.32 1.299 2.324 1.299.43 0 .847-.091 1.248-.274zM51.935 22.185c.555 0 1.047.135 1.478.404s.765.65 1.004 1.14c.239.481.359 1.034.359 1.66s-.12 1.184-.359 1.674c-.239.481-.574.856-1.004 1.126s-.923.404-1.478.404c-.555 0-1.047-.135-1.478-.404s-.765-.645-1.004-1.126c-.239-.491-.359-1.049-.359-1.674s.12-1.179.359-1.66c.239-.491.574-.871 1.004-1.14s.923-.404 1.478-.404zm-1.78 3.204c0 .962.158 1.713.473 2.252s.751.808 1.306.808.99-.269 1.306-.808c.316-.539.473-1.289.473-2.252s-.158-1.713-.473-2.252c-.316-.539-.751-.808-1.306-.808s-.99.269-1.306.808c-.316.539-.473 1.289-.473 2.252zM61.743 28.334v.115h-2.669v-.115l.875-.115v-3.681c0-.375-.009-.654-.029-.837s-.057-.337-.115-.462a.777.777 0 0 0-.387-.375 1.217 1.217 0 0 0-.603-.144c-.488 0-.923.207-1.306.621v4.879l.875.115v.115h-2.683v-.115l.875-.115v-4.98l-.847-.318v-.101l1.621-.563h.115v.909c.612-.654 1.253-.981 1.923-.981.297 0 .564.067.804.202.249.125.426.293.531.505.067.125.11.298.129.52.019.212.029.587.029 1.126v3.681l.861.115zM63.205 22.632c.373-.298.894-.447 1.564-.447.23 0 .464.019.703.058s.435.087.588.144v1.602h-.158c-.134-.577-.306-.996-.517-1.256a.978.978 0 0 0-.818-.39c-.316 0-.569.101-.761.303-.191.193-.287.452-.287.779 0 .366.105.645.316.837.21.183.531.375.961.577.335.154.598.298.789.433.201.125.368.303.502.534.143.231.215.524.215.88 0 .587-.187 1.054-.56 1.4-.373.337-.875.505-1.507.505-.23 0-.488-.024-.775-.072s-.531-.111-.732-.188l-.072-1.876h.172c.096.674.263 1.174.502 1.501.249.317.569.476.961.476.354 0 .636-.111.847-.332.211-.231.316-.529.316-.895 0-.395-.11-.693-.33-.895s-.55-.409-.99-.621a10.487 10.487 0 0 1-.789-.433c-.191-.135-.354-.313-.488-.534s-.201-.5-.201-.837c0-.539.182-.957.545-1.256zM72.944 27.728v.072l-1.564.722h-.086v-.982l-.043-.014c-.564.712-1.172 1.068-1.822 1.068-.297 0-.56-.063-.789-.188s-.397-.298-.502-.52a1.335 1.335 0 0 1-.129-.505 15.315 15.315 0 0 1-.029-1.14V22.56l-.861-.115v-.115h1.793v3.911c0 .385.01.669.029.852.019.173.057.322.115.447a.827.827 0 0 0 .33.375c.163.087.344.13.545.13.239 0 .469-.058.689-.173.22-.125.421-.303.603-.534V22.56l-.861-.115v-.115h1.793v5.225l.789.173zM75.331 18.042v10.176l.875.115v.115h-2.683v-.115l.875-.115v-9.194l-.847-.317v-.101l1.664-.563h.115zM76.804 22.474l1.578-1.53.057.014v1.371h1.636l-.086.231h-1.55v4.417c0 .337.053.587.158.751.115.231.33.346.646.346.153 0 .301-.039.445-.115s.301-.202.473-.375l.057.043a1.704 1.704 0 0 1-.617.707c-.258.173-.536.26-.832.26a1.36 1.36 0 0 1-.818-.26c-.163-.115-.277-.265-.344-.447s-.1-.423-.1-.722v-4.619h-.674l-.029-.072zM81.418 19.616c-.124.125-.186.289-.186.491s.062.371.186.505c.134.125.301.188.502.188s.363-.063.488-.188c.134-.135.201-.303.201-.505s-.067-.366-.201-.491c-.124-.135-.287-.202-.488-.202s-.368.067-.502.202zm1.047 2.569v6.033l.875.115v.115h-2.683v-.115l.875-.115v-5.052l-.847-.317v-.101l1.664-.563h.115zM89.977 28.334v.115h-2.669v-.115l.875-.115v-3.681c0-.375-.01-.654-.029-.837s-.057-.337-.115-.462a.777.777 0 0 0-.387-.375 1.217 1.217 0 0 0-.603-.144c-.488 0-.923.207-1.306.621v4.879l.875.115v.115h-2.683v-.115l.875-.115v-4.98l-.847-.318v-.101l1.621-.563h.115v.909c.612-.654 1.253-.981 1.923-.981.297 0 .564.067.803.202.249.125.426.293.531.505.067.125.11.298.129.52.019.212.029.587.029 1.126v3.681l.861.115zM95.055 22.084c-.191 0-.33.197-.416.592.249.192.44.428.574.707.134.269.201.573.201.909 0 .52-.158.967-.473 1.342-.306.366-.717.601-1.234.707-.115.029-.23.043-.344.043-.497.087-.885.207-1.162.361-.268.154-.402.327-.402.52a.5.5 0 0 0 .129.346c.086.087.249.173.488.26.239.077.598.159 1.076.245.813.154 1.392.37 1.736.649s.517.674.517 1.184c0 .385-.124.731-.373 1.039-.249.318-.593.563-1.033.736-.44.183-.933.274-1.478.274-.794 0-1.411-.144-1.851-.433-.43-.279-.646-.674-.646-1.184 0-.356.139-.688.416-.996.287-.298.67-.524 1.148-.678-.335-.135-.579-.284-.732-.447a.923.923 0 0 1-.215-.606c0-.269.158-.515.473-.736.325-.221.789-.399 1.392-.534-.593-.058-1.076-.279-1.449-.664-.364-.385-.545-.866-.545-1.443 0-.616.211-1.116.631-1.501.431-.395.981-.592 1.65-.592.536 0 .999.13 1.392.39.239-.828.607-1.241 1.105-1.241.182 0 .325.053.43.159a.503.503 0 0 1 .158.39c0 .135-.048.25-.143.346s-.21.144-.344.144c-.115 0-.234-.053-.359-.159a6.342 6.342 0 0 1-.129-.072.33.33 0 0 0-.187-.058zm-1.923 4.171c.363 0 .655-.183.875-.549.23-.366.344-.837.344-1.415s-.115-1.049-.344-1.415c-.22-.366-.512-.548-.875-.548s-.66.183-.89.548c-.22.366-.33.837-.33 1.415s.11 1.049.33 1.415c.229.366.526.549.89.549zm1.779 4.128c0-.366-.129-.649-.387-.852-.258-.192-.746-.361-1.464-.505a4.672 4.672 0 0 1-.99-.26c-.679.241-1.019.736-1.019 1.487 0 .51.163.905.488 1.184.335.279.803.419 1.406.419s1.081-.135 1.435-.404c.354-.26.531-.616.531-1.068zM110.731 26.977l-.057.159c-.182.5-.469.895-.861 1.184a2.184 2.184 0 0 1-1.32.419c-.373 0-.717-.091-1.033-.274-.306-.183-.646-.491-1.019-.924l-.258-.303c-.995 1.001-2.09 1.501-3.286 1.501-.89 0-1.578-.207-2.066-.621-.488-.423-.732-1.02-.732-1.79 0-.712.225-1.338.674-1.876s1.1-.957 1.951-1.256l-.129-.144c-.44-.51-.751-.938-.933-1.285a2.466 2.466 0 0 1-.258-1.083c0-.462.11-.876.33-1.241.23-.375.545-.664.947-.866a2.876 2.876 0 0 1 1.363-.317c.66 0 1.196.173 1.607.52.411.337.617.779.617 1.328 0 .558-.22 1.092-.66 1.602-.43.5-1.004.89-1.722 1.169l2.913 3.334a9.052 9.052 0 0 0 1.406-2.54.796.796 0 0 0 .057-.245c0-.106-.034-.183-.101-.231-.057-.058-.167-.091-.33-.101l-1.162-.072v-.115h3.63v.115l-1.09.072c-.239.01-.407.053-.502.13-.086.067-.177.217-.273.447-.459 1.087-.961 1.982-1.507 2.685l.316.361c.392.443.713.746.961.909s.531.245.847.245c.277 0 .526-.058.746-.173.23-.115.473-.313.732-.592l.143-.159.057.029zm-8.322-6.914c0 .395.11.808.33 1.241s.569.919 1.047 1.458l.014.014c1.004-.558 1.507-1.386 1.507-2.483 0-.568-.134-1.02-.402-1.357-.258-.337-.607-.505-1.047-.505-.421 0-.77.154-1.047.462-.268.298-.402.688-.402 1.169zm1.004 8.155c.43 0 .866-.101 1.306-.303s.871-.491 1.291-.866l-3.2-3.738c-.45.279-.799.654-1.047 1.126a3.172 3.172 0 0 0-.373 1.53c0 .683.182 1.232.545 1.645.373.404.866.606 1.478.606zM120.321 28.305c-.469.25-1 .375-1.593.375-.45 0-.885-.072-1.306-.216a3.124 3.124 0 0 1-1.076-.577l-.301.794h-.186l-.187-3.45.129-.029c.143.654.287 1.164.43 1.53.153.366.349.683.588.953.488.549 1.134.823 1.937.823.689 0 1.224-.178 1.607-.534.392-.366.588-.856.588-1.472 0-.433-.105-.799-.316-1.097-.201-.298-.478-.553-.832-.765s-.851-.457-1.492-.736a10.48 10.48 0 0 1-1.32-.678 3.12 3.12 0 0 1-.89-.88c-.23-.366-.344-.808-.344-1.328 0-.529.124-1.001.373-1.415a2.636 2.636 0 0 1 1.047-.981 3.17 3.17 0 0 1 1.521-.361c.392 0 .756.067 1.09.202.344.135.713.356 1.105.664l.344-.693h.187l.143 3.147-.143.043a8.23 8.23 0 0 0-.588-1.703c-.478-.991-1.21-1.487-2.195-1.487-.593 0-1.067.173-1.42.52-.354.337-.531.799-.531 1.386 0 .423.096.779.287 1.068.201.289.473.539.818.751.354.212.851.467 1.492.765.574.26 1.033.505 1.377.736.354.231.636.52.847.866.22.337.33.755.33 1.256a2.84 2.84 0 0 1-.402 1.501 2.824 2.824 0 0 1-1.119 1.025zM122.847 22.474l1.578-1.53.057.014v1.371h1.636l-.086.231h-1.55v4.417c0 .337.053.587.158.751.115.231.33.346.646.346.153 0 .301-.039.445-.115s.301-.202.473-.375l.057.043a1.697 1.697 0 0 1-.617.707c-.258.173-.536.26-.832.26a1.36 1.36 0 0 1-.818-.26c-.163-.115-.277-.265-.344-.447s-.1-.423-.1-.722v-4.619h-.674l-.029-.072zM129.972 22.185c.191 0 .354.067.488.202a.607.607 0 0 1 .201.462c0 .154-.053.284-.158.39s-.234.159-.387.159a.476.476 0 0 1-.244-.058 1.31 1.31 0 0 1-.187-.202.956.956 0 0 0-.187-.173.286.286 0 0 0-.187-.058c-.153 0-.311.091-.473.274a1.683 1.683 0 0 0-.33.635v4.402l1.148.115v.115H126.7v-.115l.875-.115v-5.052l-.847-.317v-.101l1.621-.563h.115v1.27c.536-.847 1.038-1.27 1.507-1.27zM132.677 28.55c-.363 0-.665-.125-.904-.375-.23-.26-.344-.592-.344-.996 0-.481.215-.866.646-1.155.44-.289 1.181-.539 2.225-.751V23.96c0-.558-.063-.943-.187-1.155-.125-.221-.34-.332-.647-.332-.296 0-.535.082-.717.245-.182.154-.273.366-.273.635l.014.39c0 .241-.048.433-.143.577a.416.416 0 0 1-.373.202.488.488 0 0 1-.359-.144.54.54 0 0 1-.129-.375c0-.231.11-.481.33-.751.23-.279.521-.51.875-.693a2.7 2.7 0 0 1 1.334-.361c.268 0 .493.053.675.159a.948.948 0 0 1 .416.447c.048.125.076.279.087.462.019.183.028.534.028 1.054v2.757c0 .346.033.587.1.722.068.125.187.188.359.188.259 0 .451-.091.575-.274l.057.029a1.42 1.42 0 0 1-.459.563 1.11 1.11 0 0 1-.617.188.89.89 0 0 1-.617-.217.893.893 0 0 1-.272-.606l-.044-.015c-.22.279-.473.5-.76.664a1.833 1.833 0 0 1-.875.231zm.617-.548c.201 0 .388-.043.56-.13.181-.096.329-.231.445-.404v-2.035c-.497.125-.885.25-1.163.375-.268.125-.459.274-.574.447s-.172.39-.172.649c0 .337.081.606.244.808.163.193.383.289.66.289zM136.76 22.474l1.579-1.53.057.014v1.371h1.636l-.087.231h-1.549v4.417c0 .337.053.587.159.751.115.231.329.346.645.346a.936.936 0 0 0 .444-.115c.144-.077.301-.202.475-.375l.057.043a1.704 1.704 0 0 1-.617.707 1.47 1.47 0 0 1-.832.26c-.307 0-.579-.087-.819-.26-.163-.115-.277-.265-.344-.447s-.1-.423-.1-.722v-4.619h-.675l-.029-.072zM145.693 26.804l.057.029-.057.159c-.191.51-.479.905-.861 1.184-.372.279-.823.419-1.348.419-.517 0-.976-.135-1.377-.404-.403-.269-.717-.645-.947-1.126-.22-.481-.331-1.034-.331-1.66s.12-1.184.359-1.674c.239-.491.579-.871 1.019-1.14s.943-.404 1.507-.404c.669 0 1.181.202 1.536.606.363.395.549.972.559 1.732l-.085.072h-3.875c-.019.25-.028.447-.028.592 0 .876.176 1.544.531 2.006.353.452.847.678 1.477.678a2.1 2.1 0 0 0 .933-.217c.305-.154.573-.38.803-.678l.129-.173zm-2.137-4.46c-.449 0-.823.188-1.12.563-.296.375-.488.885-.573 1.53l2.784-.101c.028-.115.043-.308.043-.577 0-.52-.101-.885-.301-1.097-.192-.212-.469-.317-.832-.317zM151.172 22.084c-.191 0-.329.197-.416.592.249.192.44.428.575.707.133.269.2.573.2.909 0 .52-.157.967-.473 1.342-.305.366-.717.601-1.233.707a1.4 1.4 0 0 1-.345.043c-.497.087-.884.207-1.161.361-.268.154-.403.327-.403.52 0 .135.044.25.129.346.087.087.249.173.488.26.24.077.599.159 1.076.245.813.154 1.392.37 1.736.649.345.279.517.674.517 1.184 0 .385-.124.731-.373 1.039-.249.318-.593.563-1.033.736-.44.183-.932.274-1.477.274-.795 0-1.411-.144-1.851-.433-.431-.279-.647-.674-.647-1.184 0-.356.139-.688.416-.996.288-.298.671-.524 1.148-.678-.335-.135-.579-.284-.732-.447a.923.923 0 0 1-.215-.606c0-.269.157-.515.473-.736.325-.221.789-.399 1.392-.534-.593-.058-1.076-.279-1.449-.664-.363-.385-.545-.866-.545-1.443 0-.616.211-1.116.632-1.501.431-.395.98-.592 1.649-.592.536 0 1 .13 1.392.39.239-.828.608-1.241 1.105-1.241.181 0 .325.053.431.159a.505.505 0 0 1 .157.39c0 .135-.048.25-.144.346a.468.468 0 0 1-.344.144c-.115 0-.235-.053-.359-.159a4.35 4.35 0 0 1-.129-.072.333.333 0 0 0-.187-.058zm-1.923 4.171c.364 0 .656-.183.876-.549.229-.366.344-.837.344-1.415s-.115-1.049-.344-1.415c-.22-.366-.512-.548-.876-.548-.363 0-.66.183-.889.548-.22.366-.329.837-.329 1.415s.109 1.049.329 1.415c.229.366.527.549.889.549zm1.78 4.128c0-.366-.129-.649-.388-.852-.259-.192-.745-.361-1.464-.505a4.678 4.678 0 0 1-.989-.26c-.679.241-1.019.736-1.019 1.487 0 .51.163.905.488 1.184.335.279.803.419 1.405.419s1.081-.135 1.435-.404c.355-.26.532-.616.532-1.068z" style="fill:var(--color6, #7a2e00)"/>
      <path fill="#7a2e00" d="m154.132 23.065 1.521 4.33h.057l1.305-3.969c.059-.193.087-.342.087-.447a.343.343 0 0 0-.215-.332c-.144-.077-.407-.144-.789-.202v-.115h2.568v.115c-.459.067-.784.168-.976.303-.191.135-.339.366-.444.693l-2.396 7.087c-.163.51-.345.861-.545 1.054-.249.279-.536.419-.861.419a.975.975 0 0 1-.675-.245.742.742 0 0 1-.272-.592c0-.192.052-.346.157-.462a.62.62 0 0 1 .459-.173c.183 0 .312.048.388.144s.139.231.187.404c.039.135.076.231.115.289a.234.234 0 0 0 .201.101c.124 0 .239-.082.344-.245.105-.154.22-.419.344-.794l.56-1.718-2.209-5.774c-.077-.183-.177-.303-.301-.361-.115-.067-.335-.111-.66-.13v-.115h2.769v.115c-.345.019-.569.048-.675.087-.096.029-.144.082-.144.159 0 .058.033.183.1.375z" style="fill:var(--color6, #7a2e00)"/>
    </symbol>
    <symbol id="icon-menu" viewBox="0 0 32 32">
      <path fill="none" stroke="#573c2b" stroke-linecap="round" stroke-width="1.333" d="M5.333 9.333h4m17.334 0h-12m12 13.334h-4m-17.334 0h12M5.333 16h21.333" style="stroke:var(--color2, #573c2b)"/>
    </symbol>
    <symbol id="icon-molecule" viewBox="0 0 32 32">
      <path d="M22 16a6.997 6.997 0 0 0 6.745-5.131 6.999 6.999 0 1 0-12.926 1.416l-2.755 2.143a5.499 5.499 0 1 0-.17 6.379l4.584 2.673a4.5 4.5 0 1 0 .546-.84l-4.602-2.684c.37-.74.579-1.575.579-2.459 0-.776-.16-1.514-.45-2.183l2.803-2.18a6.98 6.98 0 0 0 5.647 2.863zm0-1a5.996 5.996 0 0 1-6-6 5.996 5.996 0 0 1 6-6 5.996 5.996 0 0 1 6 6 5.996 5.996 0 0 1-6 6zM8.5 22c-.591 0-1.176-.116-1.722-.343s-1.042-.558-1.46-.975A4.496 4.496 0 0 1 4 17.5a4.512 4.512 0 0 1 1.318-3.182 4.503 4.503 0 0 1 6.364 0A4.5 4.5 0 0 1 8.5 22zM25 25.5a3.502 3.502 0 0 1-5.975 2.475A3.502 3.502 0 0 1 21.5 22a3.502 3.502 0 0 1 3.5 3.5z"/>
    </symbol>
    <symbol id="icon-science" viewBox="0 0 31 32">
      <path stroke-linecap="round" stroke-linejoin="round" stroke-width="1.92" d="M12.492 16.012a2.883 2.883 0 0 0 2.88 2.88 2.883 2.883 0 0 0 2.88-2.88 2.883 2.883 0 0 0-2.88-2.88 2.883 2.883 0 0 0-2.88 2.88z"/>
      <path stroke-linecap="round" stroke-linejoin="round" stroke-width="1.92" d="M1.796 29.588c1.26 1.261 3.899 1.039 7.336-.616s7.392-4.608 10.993-8.209 6.554-7.555 8.207-10.991c1.655-3.438 1.876-6.076.617-7.337-1.261-1.26-3.899-1.038-7.337.617-3.437 1.655-7.391 4.608-10.991 8.207-3.601 3.601-6.554 7.555-8.209 10.993s-1.876 6.076-.616 7.336z"/>
      <path stroke-linecap="round" stroke-linejoin="round" stroke-width="1.92" d="M10.62 20.764a51.392 51.392 0 0 0 5.556 4.835c1.887 1.408 3.734 2.555 5.435 3.374s3.226 1.295 4.485 1.402c1.258.105 2.227-.161 2.852-.786.623-.623.891-1.592.785-2.852-.105-1.258-.582-2.783-1.402-4.484s-1.966-3.549-3.374-5.435a51.3 51.3 0 0 0-4.833-5.558 51.19 51.19 0 0 0-5.558-4.833c-1.885-1.408-3.732-2.555-5.435-3.374S5.905 1.756 4.647 1.651c-1.258-.105-2.227.161-2.852.785-.625.625-.891 1.594-.786 2.852.106 1.26.582 2.783 1.402 4.485s1.966 3.548 3.375 5.434a51.183 51.183 0 0 0 4.833 5.556"/>
    </symbol>
  </defs>
</svg>
